<mxfile host="app.diagrams.net" modified="2024-03-28T08:59:54.856Z" agent="Mozilla/5.0 (Macintosh; Intel Mac OS X 10_15_7) AppleWebKit/537.36 (KHTML, like Gecko) Chrome/123.0.0.0 Safari/537.36" version="24.0.6" etag="FooC6B9tOzcJQF25Qn5o" type="github">
  <diagram name="第 1 页" id="Oe3BxkPTOQhoiAUX0uBr">
    <mxGraphModel>
      <root>
        <mxCell id="0" />
        <mxCell id="1" parent="0" />
      </root>
    </mxGraphModel>
  </diagram>
</mxfile>
